<?xml version="1.0" encoding="UTF-8"?>
<!DOCTYPE svg PUBLIC "-//W3C//DTD SVG 1.1//EN" "http://www.w3.org/Graphics/SVG/1.1/DTD/svg11.dtd">
<svg xmlns="http://www.w3.org/2000/svg" version="1.1" width="700px" height="700px" style="shape-rendering:geometricPrecision; text-rendering:geometricPrecision; image-rendering:optimizeQuality; fill-rule:evenodd; clip-rule:evenodd" xmlns:xlink="http://www.w3.org/1999/xlink">
<g><path style="opacity:1" fill="#fefefe" d="M -0.5,-0.5 C 232.833,-0.5 466.167,-0.5 699.5,-0.5C 699.5,232.833 699.5,466.167 699.5,699.5C 466.167,699.5 232.833,699.5 -0.5,699.5C -0.5,466.167 -0.5,232.833 -0.5,-0.5 Z"/></g>
<g><path style="opacity:1" fill="#4e606d" d="M 319.5,161.5 C 319.5,164.167 319.5,166.833 319.5,169.5C 322.85,169.335 326.183,169.502 329.5,170C 327.36,170.973 325.693,172.473 324.5,174.5C 317.532,175.497 310.532,175.83 303.5,175.5C 303.5,176.5 303.5,177.5 303.5,178.5C 301.5,178.5 299.5,178.5 297.5,178.5C 297.5,177.5 297.5,176.5 297.5,175.5C 294.086,174.753 290.753,174.753 287.5,175.5C 287.5,174.5 287.5,173.5 287.5,172.5C 282.61,172.691 277.944,173.691 273.5,175.5C 276.903,172.8 280.903,171.3 285.5,171C 284.944,170.617 284.611,170.117 284.5,169.5C 295.748,165.399 307.415,162.732 319.5,161.5 Z"/></g>
<g><path style="opacity:1" fill="#737e85" d="M 284.5,169.5 C 284.611,170.117 284.944,170.617 285.5,171C 280.903,171.3 276.903,172.8 273.5,175.5C 270.833,175.833 268.167,176.167 265.5,176.5C 271.609,173.767 277.943,171.433 284.5,169.5 Z"/></g>
<g><path style="opacity:1" fill="#bbdbfd" d="M 401.5,183.5 C 421.947,189.383 439.947,199.383 455.5,213.5C 462.772,220.943 469.939,228.61 477,236.5C 480.845,242.861 484.678,249.194 488.5,255.5C 494.016,265.841 498.35,276.508 501.5,287.5C 503.379,294.768 505.046,302.101 506.5,309.5C 510.637,334.129 512.97,358.796 513.5,383.5C 513.5,387.167 513.5,390.833 513.5,394.5C 516.843,426.561 522.343,458.228 530,489.5C 532.202,500.415 533.702,511.415 534.5,522.5C 533.567,525.642 532.901,528.976 532.5,532.5C 532.437,534.481 533.104,536.148 534.5,537.5C 534.167,537.833 533.833,538.167 533.5,538.5C 518.036,538.781 502.703,538.781 487.5,538.5C 478.502,540.973 469.502,540.807 460.5,538C 459.643,537.311 458.977,536.478 458.5,535.5C 460.291,534.83 461.958,534.163 463.5,533.5C 464.791,533.737 465.791,533.404 466.5,532.5C 479.314,529.664 488.981,522.664 495.5,511.5C 502.256,500.189 506.423,487.856 508,474.5C 508.809,459.472 508.475,444.472 507,429.5C 506.623,428.058 505.79,427.058 504.5,426.5C 504.5,426.167 504.5,425.833 504.5,425.5C 498.619,420.91 493.786,421.91 490,428.5C 491.247,441.448 491.581,454.448 491,467.5C 490.265,480.462 486.765,492.462 480.5,503.5C 479.833,504.5 479.167,505.5 478.5,506.5C 473.28,512.36 466.78,515.693 459,516.5C 450.021,516.511 444.687,512.178 443,503.5C 442.333,498.833 442.333,494.167 443,489.5C 449.065,471.878 455.732,454.545 463,437.5C 464.262,432.213 464.596,426.88 464,421.5C 463.208,419.356 461.708,418.023 459.5,417.5C 457.393,416.532 455.059,416.198 452.5,416.5C 452.509,403.928 452.342,391.261 452,378.5C 451.578,376.574 450.411,375.574 448.5,375.5C 447.167,370.833 445.833,366.167 444.5,361.5C 442.848,355.712 440.515,350.212 437.5,345C 437.833,344.667 438.167,344.333 438.5,344C 436.26,343.023 433.927,342.523 431.5,342.5C 430.836,340.133 429.503,338.133 427.5,336.5C 429.55,334.525 429.883,332.191 428.5,329.5C 429.12,325.98 430.12,322.647 431.5,319.5C 431.666,315.154 431.499,310.821 431,306.5C 428.621,303.959 426.454,301.293 424.5,298.5C 422.87,296.339 421.203,294.172 419.5,292C 411.651,289.842 403.651,289.009 395.5,289.5C 394.994,285.993 395.66,282.826 397.5,280C 396.971,277.571 395.637,275.738 393.5,274.5C 392.914,274.709 392.414,275.043 392,275.5C 388.406,274.673 384.739,274.007 381,273.5C 376.988,273.729 374.322,275.729 373,279.5C 371.683,284.1 370.683,288.766 370,293.5C 369.333,294.833 368.333,295.833 367,296.5C 365.467,296.056 363.967,295.723 362.5,295.5C 361.352,293.851 360.019,292.351 358.5,291C 359.517,289.951 359.684,288.784 359,287.5C 358.667,288.167 358.333,288.833 358,289.5C 355.624,287.256 352.957,286.923 350,288.5C 346.757,287.592 344.423,285.592 343,282.5C 342.667,282.833 342.333,283.167 342,283.5C 337.587,281.624 333.087,280.957 328.5,281.5C 320.735,279.789 312.902,278.456 305,277.5C 293.51,278.109 282.343,280.276 271.5,284C 265.725,287.439 259.725,290.439 253.5,293C 248.318,297.417 242.984,301.583 237.5,305.5C 236.85,305.196 236.183,304.863 235.5,304.5C 232.092,308.537 227.759,310.371 222.5,310C 222.935,302.043 223.268,293.876 223.5,285.5C 222.123,281.866 220.456,278.533 218.5,275.5C 212.474,274.676 207.307,276.342 203,280.5C 202.667,280.167 202.333,279.833 202,279.5C 202.65,282.124 202.483,284.791 201.5,287.5C 199.278,287.178 197.444,287.845 196,289.5C 195.503,286.854 195.336,284.187 195.5,281.5C 195.5,280.167 195.5,278.833 195.5,277.5C 197.909,256.891 206.243,239.224 220.5,224.5C 225.89,219.106 231.556,214.106 237.5,209.5C 245.535,204.818 253.535,200.152 261.5,195.5C 306.459,173.545 353.126,169.545 401.5,183.5 Z"/></g>
<g><path style="opacity:1" fill="#526372" d="M 249.5,184.5 C 248.656,186.759 246.989,187.759 244.5,187.5C 244.5,188.5 244.5,189.5 244.5,190.5C 242.833,190.5 241.167,190.5 239.5,190.5C 239.5,192.5 239.5,194.5 239.5,196.5C 245.178,197.661 249.178,195.661 251.5,190.5C 254.655,185.715 258.155,185.382 262,189.5C 262.165,191.678 261.332,193.511 259.5,195C 260.094,195.464 260.761,195.631 261.5,195.5C 253.535,200.152 245.535,204.818 237.5,209.5C 236.056,206.389 235.222,203.056 235,199.5C 234.612,198.572 233.945,197.905 233,197.5C 227.703,199.314 225.87,202.481 227.5,207C 224.854,207.497 222.187,207.664 219.5,207.5C 219.649,208.552 219.483,209.552 219,210.5C 218.667,210.167 218.333,209.833 218,209.5C 214.099,210.923 210.599,212.923 207.5,215.5C 219.035,201.742 233.035,191.409 249.5,184.5 Z"/></g>
<g><path style="opacity:1" fill="#4c6074" d="M 455.5,213.5 C 439.947,199.383 421.947,189.383 401.5,183.5C 399.919,181.858 399.253,179.858 399.5,177.5C 401.75,177.819 403.75,177.319 405.5,176C 411.167,175.333 416.833,175.333 422.5,176C 418.802,178.122 414.802,179.455 410.5,180C 409.833,181.333 409.167,182.667 408.5,184C 410.384,184.216 412.051,184.883 413.5,186C 416.53,186.288 419.364,186.455 422,186.5C 424.99,184.85 427.99,183.183 431,181.5C 432.811,182.078 434.645,182.578 436.5,183C 437.38,184.356 437.714,185.856 437.5,187.5C 434.14,187.384 430.807,187.051 427.5,186.5C 427.579,187.93 427.246,189.264 426.5,190.5C 433.468,191.497 440.468,191.83 447.5,191.5C 447.002,195.219 447.836,198.553 450,201.5C 451.594,200.284 453.094,198.951 454.5,197.5C 455.85,198.95 457.516,199.617 459.5,199.5C 459.5,200.5 459.5,201.5 459.5,202.5C 457.418,202.472 455.584,203.139 454,204.5C 453.86,206.521 453.693,208.355 453.5,210C 454.973,210.71 455.64,211.876 455.5,213.5 Z"/></g>
<g><path style="opacity:1" fill="#4c5f72" d="M 237.5,209.5 C 231.556,214.106 225.89,219.106 220.5,224.5C 206.243,239.224 197.909,256.891 195.5,277.5C 193.583,278.116 192.416,279.45 192,281.5C 191.502,278.183 191.335,274.85 191.5,271.5C 190.5,271.5 189.5,271.5 188.5,271.5C 188.97,274.346 188.137,276.679 186,278.5C 183.858,277.524 182.692,275.857 182.5,273.5C 183.895,270.326 185.229,267.159 186.5,264C 185.664,262.757 185.997,261.59 187.5,260.5C 189.488,261.289 189.821,262.455 188.5,264C 189.67,266.185 190.836,268.351 192,270.5C 192.767,267.8 193.933,265.3 195.5,263C 194.919,262.107 194.585,261.107 194.5,260C 196.169,256.322 197.336,252.489 198,248.5C 200.673,245.093 203.173,241.593 205.5,238C 204.859,233.096 202.692,231.93 199,234.5C 198.695,232.443 198.695,230.443 199,228.5C 198.329,229.252 197.496,229.586 196.5,229.5C 199.695,224.431 203.362,219.765 207.5,215.5C 210.599,212.923 214.099,210.923 218,209.5C 218.333,209.833 218.667,210.167 219,210.5C 219.483,209.552 219.649,208.552 219.5,207.5C 222.187,207.664 224.854,207.497 227.5,207C 225.87,202.481 227.703,199.314 233,197.5C 233.945,197.905 234.612,198.572 235,199.5C 235.222,203.056 236.056,206.389 237.5,209.5 Z"/></g>
<g><path style="opacity:1" fill="#50606f" d="M 195.5,277.5 C 195.5,278.833 195.5,280.167 195.5,281.5C 194.674,285.982 194.174,290.649 194,295.5C 192.905,296.693 192.072,298.027 191.5,299.5C 188.544,300.137 185.544,300.637 182.5,301C 175.041,307.612 169.374,315.446 165.5,324.5C 164.264,326.649 163.264,328.982 162.5,331.5C 161.5,331.5 160.5,331.5 159.5,331.5C 159.663,333.857 159.497,336.19 159,338.5C 157.43,335.657 156.263,332.657 155.5,329.5C 153.635,328.334 151.968,328.667 150.5,330.5C 149.89,333.466 148.39,335.799 146,337.5C 146.053,340.675 145.22,343.342 143.5,345.5C 145.03,327.474 151.53,311.474 163,297.5C 167.667,292.833 172.333,288.167 177,283.5C 179.739,274.767 181.739,265.767 183,256.5C 186.168,246.807 190.668,237.807 196.5,229.5C 197.496,229.586 198.329,229.252 199,228.5C 198.695,230.443 198.695,232.443 199,234.5C 202.692,231.93 204.859,233.096 205.5,238C 203.173,241.593 200.673,245.093 198,248.5C 197.336,252.489 196.169,256.322 194.5,260C 194.585,261.107 194.919,262.107 195.5,263C 193.933,265.3 192.767,267.8 192,270.5C 190.836,268.351 189.67,266.185 188.5,264C 189.821,262.455 189.488,261.289 187.5,260.5C 185.997,261.59 185.664,262.757 186.5,264C 185.229,267.159 183.895,270.326 182.5,273.5C 182.692,275.857 183.858,277.524 186,278.5C 188.137,276.679 188.97,274.346 188.5,271.5C 189.5,271.5 190.5,271.5 191.5,271.5C 191.335,274.85 191.502,278.183 192,281.5C 192.416,279.45 193.583,278.116 195.5,277.5 Z"/></g>
<g><path style="opacity:1" fill="#4d6071" d="M 504.5,233.5 C 504.703,235.638 505.703,237.305 507.5,238.5C 508.689,239.429 510.022,239.762 511.5,239.5C 511.5,244.833 511.5,250.167 511.5,255.5C 506.167,255.5 500.833,255.5 495.5,255.5C 494.968,260.797 494.134,260.797 493,255.5C 491.701,255.966 490.201,255.966 488.5,255.5C 484.678,249.194 480.845,242.861 477,236.5C 469.939,228.61 462.772,220.943 455.5,213.5C 455.64,211.876 454.973,210.71 453.5,210C 453.693,208.355 453.86,206.521 454,204.5C 455.584,203.139 457.418,202.472 459.5,202.5C 459.5,201.5 459.5,200.5 459.5,199.5C 457.516,199.617 455.85,198.95 454.5,197.5C 453.094,198.951 451.594,200.284 450,201.5C 447.836,198.553 447.002,195.219 447.5,191.5C 440.468,191.83 433.468,191.497 426.5,190.5C 427.246,189.264 427.579,187.93 427.5,186.5C 430.807,187.051 434.14,187.384 437.5,187.5C 437.714,185.856 437.38,184.356 436.5,183C 434.645,182.578 432.811,182.078 431,181.5C 427.99,183.183 424.99,184.85 422,186.5C 419.364,186.455 416.53,186.288 413.5,186C 412.051,184.883 410.384,184.216 408.5,184C 409.167,182.667 409.833,181.333 410.5,180C 414.802,179.455 418.802,178.122 422.5,176C 416.833,175.333 411.167,175.333 405.5,176C 403.75,177.319 401.75,177.819 399.5,177.5C 399.253,179.858 399.919,181.858 401.5,183.5C 353.126,169.545 306.459,173.545 261.5,195.5C 260.761,195.631 260.094,195.464 259.5,195C 261.332,193.511 262.165,191.678 262,189.5C 258.155,185.382 254.655,185.715 251.5,190.5C 249.178,195.661 245.178,197.661 239.5,196.5C 239.5,194.5 239.5,192.5 239.5,190.5C 241.167,190.5 242.833,190.5 244.5,190.5C 244.5,189.5 244.5,188.5 244.5,187.5C 246.989,187.759 248.656,186.759 249.5,184.5C 254.856,181.822 260.189,179.156 265.5,176.5C 268.167,176.167 270.833,175.833 273.5,175.5C 277.944,173.691 282.61,172.691 287.5,172.5C 287.5,173.5 287.5,174.5 287.5,175.5C 290.753,174.753 294.086,174.753 297.5,175.5C 297.5,176.5 297.5,177.5 297.5,178.5C 299.5,178.5 301.5,178.5 303.5,178.5C 303.5,177.5 303.5,176.5 303.5,175.5C 310.532,175.83 317.532,175.497 324.5,174.5C 325.693,172.473 327.36,170.973 329.5,170C 326.183,169.502 322.85,169.335 319.5,169.5C 319.5,166.833 319.5,164.167 319.5,161.5C 333.152,158.45 346.986,157.783 361,159.5C 398.969,161.427 432.802,173.927 462.5,197C 471.503,205.67 480.17,214.67 488.5,224C 494.242,226.597 499.576,229.763 504.5,233.5 Z"/></g>
<g><path style="opacity:1" fill="#4d5f76" d="M 488.5,255.5 C 490.201,255.966 491.701,255.966 493,255.5C 494.134,260.797 494.968,260.797 495.5,255.5C 500.833,255.5 506.167,255.5 511.5,255.5C 513.199,255.34 514.866,255.506 516.5,256C 518.845,258.014 520.845,260.347 522.5,263C 524.134,263.494 525.801,263.66 527.5,263.5C 527.187,260.753 527.52,258.086 528.5,255.5C 531.075,257.96 531.742,260.46 530.5,263C 531.999,264.797 533.499,266.631 535,268.5C 535.538,272.445 535.038,276.278 533.5,280C 533.667,280.833 533.833,281.667 534,282.5C 534.654,281.304 535.154,281.304 535.5,282.5C 535.137,283.183 534.804,283.85 534.5,284.5C 527.077,275.32 518.91,266.653 510,258.5C 514.689,271.083 518.522,284.083 521.5,297.5C 519.897,297.688 518.563,297.188 517.5,296C 517.833,295.667 518.167,295.333 518.5,295C 516.777,294.225 515.777,292.892 515.5,291C 516.459,288.88 516.626,286.713 516,284.5C 513.112,280.751 510.612,276.751 508.5,272.5C 504.878,271.341 501.211,271.175 497.5,272C 498.887,275.228 500.887,278.061 503.5,280.5C 502.054,282.618 501.387,284.951 501.5,287.5C 498.35,276.508 494.016,265.841 488.5,255.5 Z"/></g>
<g><path style="opacity:1" fill="#4f606e" d="M 504.5,233.5 C 531.292,251.124 551.459,274.458 565,303.5C 570.683,316.233 574.183,329.566 575.5,343.5C 574.867,353.729 571.867,363.062 566.5,371.5C 565.841,368.592 565.007,368.258 564,370.5C 562.478,368.259 561.145,365.926 560,363.5C 559.51,364.793 559.343,366.127 559.5,367.5C 557.571,367.769 555.905,367.269 554.5,366C 555.627,364.247 556.627,362.413 557.5,360.5C 554.869,358.995 555.203,358.329 558.5,358.5C 559.227,345.461 560.227,332.461 561.5,319.5C 560.5,319.5 559.5,319.5 558.5,319.5C 558.607,317.097 557.607,315.264 555.5,314C 556.517,312.951 556.684,311.784 556,310.5C 552.595,309.532 552.095,308.032 554.5,306C 553.833,305.333 553.167,304.667 552.5,304C 553.591,301.936 553.758,299.769 553,297.5C 552.586,297.957 552.086,298.291 551.5,298.5C 549.919,295.107 547.253,293.773 543.5,294.5C 543.5,293.5 543.5,292.5 543.5,291.5C 541.61,291.703 540.11,291.037 539,289.5C 538.601,289.728 538.435,290.062 538.5,290.5C 536.674,288.853 535.34,286.853 534.5,284.5C 534.804,283.85 535.137,283.183 535.5,282.5C 535.154,281.304 534.654,281.304 534,282.5C 533.833,281.667 533.667,280.833 533.5,280C 535.038,276.278 535.538,272.445 535,268.5C 533.499,266.631 531.999,264.797 530.5,263C 531.742,260.46 531.075,257.96 528.5,255.5C 527.52,258.086 527.187,260.753 527.5,263.5C 525.801,263.66 524.134,263.494 522.5,263C 520.845,260.347 518.845,258.014 516.5,256C 514.866,255.506 513.199,255.34 511.5,255.5C 511.5,250.167 511.5,244.833 511.5,239.5C 510.022,239.762 508.689,239.429 507.5,238.5C 505.703,237.305 504.703,235.638 504.5,233.5 Z"/></g>
<g><path style="opacity:1" fill="#4f5f70" d="M 394.5,292.5 C 394.469,301.863 389.802,305.863 380.5,304.5C 376.061,301.191 374.395,296.691 375.5,291C 374.183,284.639 376.183,279.639 381.5,276C 387.192,274.618 391.359,276.451 394,281.5C 394.499,285.152 394.665,288.818 394.5,292.5 Z"/></g>
<g><path style="opacity:1" fill="#bbdbfa" d="M 534.5,284.5 C 535.34,286.853 536.674,288.853 538.5,290.5C 543.262,299.077 547.762,307.744 552,316.5C 556.522,327.774 558.189,339.44 557,351.5C 555.25,354.246 554.25,357.246 554,360.5C 549.333,366.664 544.5,372.664 539.5,378.5C 537.167,379.5 535.5,381.167 534.5,383.5C 533.391,383.557 532.391,383.89 531.5,384.5C 530.833,378.833 530.167,373.167 529.5,367.5C 529.664,345.505 527.331,323.838 522.5,302.5C 522.784,300.585 522.451,298.919 521.5,297.5C 518.522,284.083 514.689,271.083 510,258.5C 518.91,266.653 527.077,275.32 534.5,284.5 Z"/></g>
<g><path style="opacity:1" fill="#4f5e70" d="M 219.5,303.5 C 218.115,305.883 216.115,307.55 213.5,308.5C 207.156,308.826 203.489,305.826 202.5,299.5C 202.175,294.401 202.675,289.401 204,284.5C 206.942,279.847 211.109,278.347 216.5,280C 218.667,280.833 220.167,282.333 221,284.5C 221.912,291.086 221.412,297.419 219.5,303.5 Z"/></g>
<g><path style="opacity:1" fill="#bbd5f0" d="M 237.5,305.5 C 232.791,310.175 228.124,314.842 223.5,319.5C 221.989,314.284 220.656,308.951 219.5,303.5C 221.412,297.419 221.912,291.086 221,284.5C 220.167,282.333 218.667,280.833 216.5,280C 211.109,278.347 206.942,279.847 204,284.5C 202.675,289.401 202.175,294.401 202.5,299.5C 198.833,299.5 195.167,299.5 191.5,299.5C 192.072,298.027 192.905,296.693 194,295.5C 194.174,290.649 194.674,285.982 195.5,281.5C 195.336,284.187 195.503,286.854 196,289.5C 197.444,287.845 199.278,287.178 201.5,287.5C 202.483,284.791 202.65,282.124 202,279.5C 202.333,279.833 202.667,280.167 203,280.5C 207.307,276.342 212.474,274.676 218.5,275.5C 220.456,278.533 222.123,281.866 223.5,285.5C 223.268,293.876 222.935,302.043 222.5,310C 227.759,310.371 232.092,308.537 235.5,304.5C 236.183,304.863 236.85,305.196 237.5,305.5 Z"/></g>
<g><path style="opacity:1" fill="#4d5f70" d="M 521.5,297.5 C 522.451,298.919 522.784,300.585 522.5,302.5C 520.958,303.301 519.292,303.634 517.5,303.5C 517.421,306.271 517.921,308.937 519,311.5C 519.667,312.833 520.333,312.833 521,311.5C 521.713,315.366 522.88,319.032 524.5,322.5C 524.333,323.167 524.167,323.833 524,324.5C 522.451,321.997 520.784,321.997 519,324.5C 517.148,326.23 517.314,327.396 519.5,328C 518.54,329.419 517.707,330.919 517,332.5C 516.667,330.833 516.333,329.167 516,327.5C 515.503,330.146 515.336,332.813 515.5,335.5C 514.167,335.5 512.833,335.5 511.5,335.5C 511.5,328.5 511.5,321.5 511.5,314.5C 510.5,314.5 509.5,314.5 508.5,314.5C 508.598,312.447 507.931,310.78 506.5,309.5C 505.046,302.101 503.379,294.768 501.5,287.5C 501.387,284.951 502.054,282.618 503.5,280.5C 500.887,278.061 498.887,275.228 497.5,272C 501.211,271.175 504.878,271.341 508.5,272.5C 510.612,276.751 513.112,280.751 516,284.5C 516.626,286.713 516.459,288.88 515.5,291C 515.777,292.892 516.777,294.225 518.5,295C 518.167,295.333 517.833,295.667 517.5,296C 518.563,297.188 519.897,297.688 521.5,297.5 Z"/></g>
<g><path style="opacity:1" fill="#bcd8f3" d="M 424.5,298.5 C 422.833,297.833 421.167,297.167 419.5,296.5C 419.586,295.504 419.252,294.671 418.5,294C 410.81,291.52 403.143,291.02 395.5,292.5C 395.167,292.5 394.833,292.5 394.5,292.5C 394.665,288.818 394.499,285.152 394,281.5C 391.359,276.451 387.192,274.618 381.5,276C 376.183,279.639 374.183,284.639 375.5,291C 374.395,296.691 376.061,301.191 380.5,304.5C 379.458,307.423 378.125,310.09 376.5,312.5C 363.074,298.055 347.074,287.721 328.5,281.5C 333.087,280.957 337.587,281.624 342,283.5C 342.333,283.167 342.667,282.833 343,282.5C 344.423,285.592 346.757,287.592 350,288.5C 352.957,286.923 355.624,287.256 358,289.5C 358.333,288.833 358.667,288.167 359,287.5C 359.684,288.784 359.517,289.951 358.5,291C 360.019,292.351 361.352,293.851 362.5,295.5C 363.967,295.723 365.467,296.056 367,296.5C 368.333,295.833 369.333,294.833 370,293.5C 370.683,288.766 371.683,284.1 373,279.5C 374.322,275.729 376.988,273.729 381,273.5C 384.739,274.007 388.406,274.673 392,275.5C 392.414,275.043 392.914,274.709 393.5,274.5C 395.637,275.738 396.971,277.571 397.5,280C 395.66,282.826 394.994,285.993 395.5,289.5C 403.651,289.009 411.651,289.842 419.5,292C 421.203,294.172 422.87,296.339 424.5,298.5 Z"/></g>
<g><path style="opacity:1" fill="#dcd7e3" d="M 419.5,296.5 C 411.858,292.907 403.858,291.907 395.5,293.5C 395.5,293.167 395.5,292.833 395.5,292.5C 403.143,291.02 410.81,291.52 418.5,294C 419.252,294.671 419.586,295.504 419.5,296.5 Z"/></g>
<g><path style="opacity:1" fill="#fcced0" d="M 419.5,296.5 C 420.792,298.702 422.626,300.369 425,301.5C 428.232,310.792 428.232,320.125 425,329.5C 421.585,329.919 419.085,331.586 417.5,334.5C 409.34,336.715 401.006,336.882 392.5,335C 388.68,333.335 385.68,330.835 383.5,327.5C 382.485,324.311 382.485,321.144 383.5,318C 380.684,314.72 379.851,310.886 381,306.5C 384.333,305.167 387.667,305.167 391,306.5C 391.483,305.552 391.649,304.552 391.5,303.5C 392.833,303.5 394.167,303.5 395.5,303.5C 395.002,300.326 395.002,296.993 395.5,293.5C 403.858,291.907 411.858,292.907 419.5,296.5 Z"/></g>
<g><path style="opacity:1" fill="#fdcfcf" d="M 200.5,306.5 C 199.209,307.473 199.209,308.473 200.5,309.5C 203.725,310.041 206.559,311.374 209,313.5C 211.886,311.775 215.052,311.108 218.5,311.5C 218.26,314.579 218.593,317.579 219.5,320.5C 217.235,322.623 215.568,325.123 214.5,328C 214.861,330.449 215.528,332.782 216.5,335C 213.491,337.744 210.158,340.078 206.5,342C 201.709,344.098 196.709,345.265 191.5,345.5C 191.539,343.641 190.706,342.308 189,341.5C 185.461,343.138 182.294,342.638 179.5,340C 178.207,339.51 176.873,339.343 175.5,339.5C 170.824,336.133 168.824,331.467 169.5,325.5C 169.906,321.728 170.739,318.061 172,314.5C 173.011,313.663 174.178,313.33 175.5,313.5C 176.83,311.627 178.83,309.46 181.5,307C 184.726,305.801 188.059,305.301 191.5,305.5C 191.874,302.38 193.707,301.046 197,301.5C 201.247,301.229 202.414,302.895 200.5,306.5 Z"/></g>
<g><path style="opacity:1" fill="#e5d4e1" d="M 419.5,296.5 C 421.167,297.167 422.833,297.833 424.5,298.5C 426.454,301.293 428.621,303.959 431,306.5C 431.499,310.821 431.666,315.154 431.5,319.5C 430.503,319.47 429.836,319.97 429.5,321C 428.464,323.774 427.631,326.607 427,329.5C 424.456,331.267 421.956,332.934 419.5,334.5C 418.833,334.5 418.167,334.5 417.5,334.5C 419.085,331.586 421.585,329.919 425,329.5C 428.232,320.125 428.232,310.792 425,301.5C 422.626,300.369 420.792,298.702 419.5,296.5 Z"/></g>
<g><path style="opacity:1" fill="#e3cdd0" d="M 394.5,292.5 C 394.833,292.5 395.167,292.5 395.5,292.5C 395.5,292.833 395.5,293.167 395.5,293.5C 395.002,296.993 395.002,300.326 395.5,303.5C 394.167,303.5 392.833,303.5 391.5,303.5C 391.649,304.552 391.483,305.552 391,306.5C 387.667,305.167 384.333,305.167 381,306.5C 379.851,310.886 380.684,314.72 383.5,318C 382.485,321.144 382.485,324.311 383.5,327.5C 382.833,328.833 382.167,330.167 381.5,331.5C 381.665,328.482 381.498,325.482 381,322.5C 379.726,319.061 378.226,315.728 376.5,312.5C 378.125,310.09 379.458,307.423 380.5,304.5C 389.802,305.863 394.469,301.863 394.5,292.5 Z"/></g>
<g><path style="opacity:1" fill="#eed0d6" d="M 219.5,303.5 C 220.656,308.951 221.989,314.284 223.5,319.5C 219.312,325.047 217.312,331.38 217.5,338.5C 214.195,340.118 210.861,341.784 207.5,343.5C 201.417,345.308 195.417,346.975 189.5,348.5C 184.826,346.163 180.159,343.83 175.5,341.5C 175.5,340.833 175.5,340.167 175.5,339.5C 176.873,339.343 178.207,339.51 179.5,340C 182.294,342.638 185.461,343.138 189,341.5C 190.706,342.308 191.539,343.641 191.5,345.5C 196.709,345.265 201.709,344.098 206.5,342C 210.158,340.078 213.491,337.744 216.5,335C 215.528,332.782 214.861,330.449 214.5,328C 215.568,325.123 217.235,322.623 219.5,320.5C 218.593,317.579 218.26,314.579 218.5,311.5C 215.052,311.108 211.886,311.775 209,313.5C 206.559,311.374 203.725,310.041 200.5,309.5C 199.209,308.473 199.209,307.473 200.5,306.5C 202.754,308.433 205.421,309.766 208.5,310.5C 210.422,310.199 212.088,309.533 213.5,308.5C 216.115,307.55 218.115,305.883 219.5,303.5 Z"/></g>
<g><path style="opacity:1" fill="#e3ced8" d="M 191.5,299.5 C 195.167,299.5 198.833,299.5 202.5,299.5C 203.489,305.826 207.156,308.826 213.5,308.5C 212.088,309.533 210.422,310.199 208.5,310.5C 205.421,309.766 202.754,308.433 200.5,306.5C 202.414,302.895 201.247,301.229 197,301.5C 193.707,301.046 191.874,302.38 191.5,305.5C 188.059,305.301 184.726,305.801 181.5,307C 178.83,309.46 176.83,311.627 175.5,313.5C 174.178,313.33 173.011,313.663 172,314.5C 170.739,318.061 169.906,321.728 169.5,325.5C 168.824,331.467 170.824,336.133 175.5,339.5C 175.5,340.167 175.5,340.833 175.5,341.5C 173.097,341.607 171.264,340.607 170,338.5C 169.236,333.521 167.736,328.854 165.5,324.5C 169.374,315.446 175.041,307.612 182.5,301C 185.544,300.637 188.544,300.137 191.5,299.5 Z"/></g>
<g><path style="opacity:1" fill="#fcfdfd" d="M 217.5,338.5 C 219.392,343.396 222.726,347.063 227.5,349.5C 227.833,350.833 228.167,352.167 228.5,353.5C 227.283,357.199 226.283,361.033 225.5,365C 224.197,368.815 222.531,372.315 220.5,375.5C 215.821,375.334 211.155,375.501 206.5,376C 205.944,376.383 205.611,376.883 205.5,377.5C 204.508,377.328 203.842,377.662 203.5,378.5C 201.974,379.492 201.307,380.992 201.5,383C 201.514,384.385 201.848,385.551 202.5,386.5C 202.712,388.384 203.712,389.717 205.5,390.5C 206.452,392.045 206.785,393.712 206.5,395.5C 205.629,398.003 204.963,400.67 204.5,403.5C 204.389,404.117 204.056,404.617 203.5,405C 196.149,405.585 188.815,405.918 181.5,406C 177.915,402.922 174.915,399.422 172.5,395.5C 171.473,391.554 171.306,387.554 172,383.5C 173.705,377.013 175.872,370.68 178.5,364.5C 181.804,358.93 185.471,353.597 189.5,348.5C 195.417,346.975 201.417,345.308 207.5,343.5C 210.861,341.784 214.195,340.118 217.5,338.5 Z"/></g>
<g><path style="opacity:1" fill="#c3dcf1" d="M 431.5,319.5 C 430.12,322.647 429.12,325.98 428.5,329.5C 429.883,332.191 429.55,334.525 427.5,336.5C 429.503,338.133 430.836,340.133 431.5,342.5C 433.927,342.523 436.26,343.023 438.5,344C 438.167,344.333 437.833,344.667 437.5,345C 440.515,350.212 442.848,355.712 444.5,361.5C 443.206,360.71 442.039,359.71 441,358.5C 438.76,355.025 436.76,351.358 435,347.5C 430.527,344.361 426.694,340.527 423.5,336C 422.099,335.59 420.766,335.09 419.5,334.5C 421.956,332.934 424.456,331.267 427,329.5C 427.631,326.607 428.464,323.774 429.5,321C 429.836,319.97 430.503,319.47 431.5,319.5 Z"/></g>
<g><path style="opacity:1" fill="#4d5f72" d="M 162.5,331.5 C 156.544,354.423 159.877,375.756 172.5,395.5C 174.915,399.422 177.915,402.922 181.5,406C 188.815,405.918 196.149,405.585 203.5,405C 204.056,404.617 204.389,404.117 204.5,403.5C 206.048,403.179 206.715,402.179 206.5,400.5C 207.15,400.196 207.817,399.863 208.5,399.5C 209.495,404.792 209.828,410.125 209.5,415.5C 206.91,415.604 204.577,414.937 202.5,413.5C 201,413.453 200,414.119 199.5,415.5C 201.833,416.833 204.167,418.167 206.5,419.5C 207.308,421.423 207.808,423.423 208,425.5C 209.399,424.773 210.899,424.273 212.5,424C 212.043,423.586 211.709,423.086 211.5,422.5C 211.953,420.435 212.953,418.768 214.5,417.5C 215.711,419.422 217.044,421.255 218.5,423C 223.331,423.846 225.997,426.679 226.5,431.5C 227.227,437.189 227.894,443.022 228.5,449C 227.13,454.171 225.463,459.004 223.5,463.5C 218.167,463.5 212.833,463.5 207.5,463.5C 207.66,465.199 207.494,466.866 207,468.5C 206.692,467.692 206.192,467.025 205.5,466.5C 205.06,467.698 204.727,468.865 204.5,470C 200.686,471.127 196.853,472.294 193,473.5C 191.765,471.437 189.931,470.437 187.5,470.5C 183.193,470.653 179.36,471.987 176,474.5C 175.517,475.448 175.351,476.448 175.5,477.5C 180.875,477.172 186.208,477.505 191.5,478.5C 190.167,479.5 190.167,480.5 191.5,481.5C 189.704,482.141 188.204,483.141 187,484.5C 183.333,484.5 179.667,484.5 176,484.5C 175.667,482.833 175.333,481.167 175,479.5C 173.953,491.824 173.12,504.157 172.5,516.5C 174.783,522.979 175.616,529.646 175,536.5C 172.788,533.998 171.955,530.998 172.5,527.5C 171.5,527.5 170.5,527.5 169.5,527.5C 169.5,526.167 169.5,524.833 169.5,523.5C 168.584,511.531 168.251,499.531 168.5,487.5C 168.5,486.167 168.5,484.833 168.5,483.5C 169.434,482.432 169.768,481.099 169.5,479.5C 171.234,477.678 172.234,475.345 172.5,472.5C 170.955,471.548 169.288,471.215 167.5,471.5C 167.276,469.213 166.609,467.047 165.5,465C 165.905,464.055 166.572,463.388 167.5,463C 166.17,459.632 166.67,456.465 169,453.5C 169.763,456.063 170.263,456.063 170.5,453.5C 169.844,451.547 169.511,449.547 169.5,447.5C 168.022,447.762 166.689,447.429 165.5,446.5C 166.106,444.291 166.773,442.124 167.5,440C 166.572,439.612 165.905,438.945 165.5,438C 168.137,435.05 171.471,433.883 175.5,434.5C 175.5,435.5 175.5,436.5 175.5,437.5C 173.375,445.902 174.708,453.569 179.5,460.5C 179.894,462.71 181.227,464.043 183.5,464.5C 188.142,468.751 193.475,469.585 199.5,467C 207.796,463.274 212.296,456.774 213,447.5C 214.643,435.614 210.143,427.114 199.5,422C 195.074,421.209 190.741,421.543 186.5,423C 182.663,425.88 179.663,429.38 177.5,433.5C 176.413,431.603 175.08,430.103 173.5,429C 175.344,422.719 176.011,416.219 175.5,409.5C 173.071,409.585 171.071,410.585 169.5,412.5C 166.467,410.908 165.801,408.574 167.5,405.5C 169.369,404.376 171.369,403.543 173.5,403C 172.366,401.984 172.699,401.317 174.5,401C 172.406,399.648 170.073,399.148 167.5,399.5C 167.318,397.409 167.652,395.409 168.5,393.5C 166.541,392.252 165.041,390.585 164,388.5C 163.047,390.455 161.713,392.122 160,393.5C 159.281,387.859 159.781,382.359 161.5,377C 159.647,373.963 157.814,374.13 156,377.5C 155.34,380.047 155.507,382.547 156.5,385C 156,386.5 155.5,388 155,389.5C 153.426,388.016 152.093,386.349 151,384.5C 150.836,379.821 150.836,375.155 151,370.5C 150.586,370.957 150.086,371.291 149.5,371.5C 147.921,368.734 145.921,366.4 143.5,364.5C 143.5,358.167 143.5,351.833 143.5,345.5C 145.22,343.342 146.053,340.675 146,337.5C 148.39,335.799 149.89,333.466 150.5,330.5C 151.968,328.667 153.635,328.334 155.5,329.5C 156.263,332.657 157.43,335.657 159,338.5C 159.497,336.19 159.663,333.857 159.5,331.5C 160.5,331.5 161.5,331.5 162.5,331.5 Z"/></g>
<g><path style="opacity:1" fill="#4f5f6e" d="M 328.5,281.5 C 347.074,287.721 363.074,298.055 376.5,312.5C 378.226,315.728 379.726,319.061 381,322.5C 381.498,325.482 381.665,328.482 381.5,331.5C 379.855,341.459 374.521,348.459 365.5,352.5C 363.102,352.259 361.102,352.926 359.5,354.5C 328.72,359.432 297.72,361.765 266.5,361.5C 264.105,365.793 262.105,370.293 260.5,375C 259.453,376.578 259.453,378.078 260.5,379.5C 268.281,381.537 276.281,382.537 284.5,382.5C 284.611,383.117 284.944,383.617 285.5,384C 288.817,384.498 292.15,384.665 295.5,384.5C 307.948,385.925 320.281,388.091 332.5,391C 337.9,396.358 337.4,401.191 331,405.5C 329.802,447.42 319.802,487.087 301,524.5C 291.626,541.084 277.459,547.25 258.5,543C 257.263,542.768 256.263,542.268 255.5,541.5C 255.5,540.5 255.5,539.5 255.5,538.5C 243.2,538.368 231.366,536.034 220,531.5C 217.88,533.068 216.38,532.568 215.5,530C 215.833,529 216.167,528 216.5,527C 213.702,525.547 210.702,524.547 207.5,524C 203.77,520.143 200.77,515.977 198.5,511.5C 198.889,508.447 198.223,505.78 196.5,503.5C 196.821,497.974 196.488,492.64 195.5,487.5C 192.316,485.586 188.649,484.92 184.5,485.5C 184.172,497.012 184.505,508.346 185.5,519.5C 186.24,525.533 187.24,531.533 188.5,537.5C 186.54,543.311 182.54,545.811 176.5,545C 171.814,540.125 169.481,534.292 169.5,527.5C 170.5,527.5 171.5,527.5 172.5,527.5C 171.955,530.998 172.788,533.998 175,536.5C 175.616,529.646 174.783,522.979 172.5,516.5C 173.12,504.157 173.953,491.824 175,479.5C 175.333,481.167 175.667,482.833 176,484.5C 179.667,484.5 183.333,484.5 187,484.5C 188.204,483.141 189.704,482.141 191.5,481.5C 190.167,480.5 190.167,479.5 191.5,478.5C 186.208,477.505 180.875,477.172 175.5,477.5C 175.351,476.448 175.517,475.448 176,474.5C 179.36,471.987 183.193,470.653 187.5,470.5C 189.931,470.437 191.765,471.437 193,473.5C 196.853,472.294 200.686,471.127 204.5,470C 204.727,468.865 205.06,467.698 205.5,466.5C 206.192,467.025 206.692,467.692 207,468.5C 207.494,466.866 207.66,465.199 207.5,463.5C 212.833,463.5 218.167,463.5 223.5,463.5C 223.5,464.833 223.5,466.167 223.5,467.5C 221.329,472.515 217.829,476.515 213,479.5C 212.501,484.823 212.334,490.156 212.5,495.5C 212.13,501.925 212.63,508.258 214,514.5C 215.873,516.709 218.04,518.542 220.5,520C 231.991,522.898 243.657,524.898 255.5,526C 262.346,526.821 269.013,526.654 275.5,525.5C 276.833,525.167 278.167,524.833 279.5,524.5C 281.564,524.238 282.897,523.071 283.5,521C 285.392,520.027 287.392,519.36 289.5,519C 288.289,518.107 288.289,517.274 289.5,516.5C 290.086,516.709 290.586,517.043 291,517.5C 290.283,510.508 292.283,504.508 297,499.5C 296.988,496.349 297.988,493.682 300,491.5C 300.49,492.793 300.657,494.127 300.5,495.5C 301.5,495.5 302.5,495.5 303.5,495.5C 303.334,491.486 303.501,487.486 304,483.5C 305.618,479.932 306.951,476.265 308,472.5C 308.781,464.18 309.281,455.847 309.5,447.5C 310.5,447.5 311.5,447.5 312.5,447.5C 312.492,439.717 313.825,432.217 316.5,425C 315.595,420.023 315.595,415.19 316.5,410.5C 317.46,408.523 318.46,406.523 319.5,404.5C 318.091,404.178 316.591,403.178 315,401.5C 311.943,402.451 308.777,402.784 305.5,402.5C 278.295,398.349 250.962,395.349 223.5,393.5C 221.689,400.412 220.355,407.412 219.5,414.5C 222.593,417.687 224.927,421.354 226.5,425.5C 226.5,427.5 226.5,429.5 226.5,431.5C 225.997,426.679 223.331,423.846 218.5,423C 217.044,421.255 215.711,419.422 214.5,417.5C 212.953,418.768 211.953,420.435 211.5,422.5C 211.709,423.086 212.043,423.586 212.5,424C 210.899,424.273 209.399,424.773 208,425.5C 207.808,423.423 207.308,421.423 206.5,419.5C 204.167,418.167 201.833,416.833 199.5,415.5C 200,414.119 201,413.453 202.5,413.5C 204.577,414.937 206.91,415.604 209.5,415.5C 209.828,410.125 209.495,404.792 208.5,399.5C 207.817,399.863 207.15,400.196 206.5,400.5C 206.5,398.833 206.5,397.167 206.5,395.5C 206.785,393.712 206.452,392.045 205.5,390.5C 203.712,389.717 202.712,388.384 202.5,386.5C 202.401,383.763 202.735,381.096 203.5,378.5C 203.842,377.662 204.508,377.328 205.5,377.5C 210.637,376.932 215.637,376.266 220.5,375.5C 222.531,372.315 224.197,368.815 225.5,365C 226.283,361.033 227.283,357.199 228.5,353.5C 228.167,352.167 227.833,350.833 227.5,349.5C 222.726,347.063 219.392,343.396 217.5,338.5C 217.312,331.38 219.312,325.047 223.5,319.5C 228.124,314.842 232.791,310.175 237.5,305.5C 242.984,301.583 248.318,297.417 253.5,293C 259.725,290.439 265.725,287.439 271.5,284C 282.343,280.276 293.51,278.109 305,277.5C 312.902,278.456 320.735,279.789 328.5,281.5 Z"/></g>
<g><path style="opacity:1" fill="#6a5965" d="M 335.5,343.5 C 333.342,345.22 330.675,346.053 327.5,346C 308.662,346.829 289.995,346.662 271.5,345.5C 292.887,345.944 314.221,345.277 335.5,343.5 Z"/></g>
<g><path style="opacity:1" fill="#635a68" d="M 367.5,331.5 C 367.919,334.325 366.919,336.491 364.5,338C 359.943,339.65 355.943,342.15 352.5,345.5C 351.614,344.675 351.281,343.675 351.5,342.5C 346.167,342.833 340.833,343.167 335.5,343.5C 342.331,342.159 349.331,340.993 356.5,340C 359.257,339.062 361.59,337.562 363.5,335.5C 363.833,335.5 364.167,335.5 364.5,335.5C 365.5,334.167 366.5,332.833 367.5,331.5 Z"/></g>
<g><path style="opacity:1" fill="#d9979f" d="M 363.5,335.5 C 361.59,337.562 359.257,339.062 356.5,340C 349.331,340.993 342.331,342.159 335.5,343.5C 314.221,345.277 292.887,345.944 271.5,345.5C 271.5,344.833 271.5,344.167 271.5,343.5C 296.283,344.106 320.95,342.773 345.5,339.5C 351.658,338.458 357.658,337.125 363.5,335.5 Z"/></g>
<g><path style="opacity:1" fill="#826266" d="M 263.5,331.5 C 267.773,333.349 270.106,336.683 270.5,341.5C 268.446,338.065 266.113,334.732 263.5,331.5 Z"/></g>
<g><path style="opacity:1" fill="#545b71" d="M 232.5,327.5 C 231.742,330.352 231.742,333.019 232.5,335.5C 234.514,335.608 236.18,334.942 237.5,333.5C 238.167,333.5 238.833,333.5 239.5,333.5C 243.796,333.08 244.463,334.747 241.5,338.5C 236.771,342.18 232.438,341.513 228.5,336.5C 230.104,334.821 230.771,332.821 230.5,330.5C 229.167,330.5 227.833,330.5 226.5,330.5C 226.017,326.423 227.684,324.09 231.5,323.5C 231.232,325.099 231.566,326.432 232.5,327.5 Z"/></g>
<g><path style="opacity:1" fill="#d096a1" d="M 363.5,321.5 C 366.331,324.088 367.665,327.421 367.5,331.5C 366.5,332.833 365.5,334.167 364.5,335.5C 364.46,330.807 364.127,326.141 363.5,321.5 Z"/></g>
<g><path style="opacity:1" fill="#745c67" d="M 257.5,330.5 C 251.109,330.063 245.109,331.063 239.5,333.5C 238.833,333.5 238.167,333.5 237.5,333.5C 238.903,332.069 240.569,330.902 242.5,330C 247.684,329.184 252.684,329.35 257.5,330.5 Z"/></g>
<g><path style="opacity:1" fill="#d69da2" d="M 239.5,325.5 C 239.238,326.978 239.571,328.311 240.5,329.5C 247.458,326.993 254.458,326.993 261.5,329.5C 261.833,330.167 262.167,330.833 262.5,331.5C 260.883,330.962 259.216,330.629 257.5,330.5C 252.684,329.35 247.684,329.184 242.5,330C 240.569,330.902 238.903,332.069 237.5,333.5C 236.18,334.942 234.514,335.608 232.5,335.5C 232.351,334.448 232.517,333.448 233,332.5C 235.4,330.271 237.567,327.937 239.5,325.5 Z"/></g>
<g><path style="opacity:1" fill="#f49c9d" d="M 319.5,312.5 C 319.414,313.496 319.748,314.329 320.5,315C 322.817,317.157 325.484,318.657 328.5,319.5C 329.347,320.966 330.68,321.8 332.5,322C 337.5,322.667 342.5,322.667 347.5,322C 349.066,321.392 350.4,320.558 351.5,319.5C 352.167,319.5 352.833,319.5 353.5,319.5C 353.828,324.875 353.495,330.208 352.5,335.5C 351.534,333.604 351.201,331.604 351.5,329.5C 346.12,329.676 340.787,329.342 335.5,328.5C 335.5,329.833 335.5,331.167 335.5,332.5C 332.813,332.664 330.146,332.497 327.5,332C 328.743,330.846 329.743,329.512 330.5,328C 337.386,327.422 344.386,326.256 351.5,324.5C 350.833,324.167 350.167,323.833 349.5,323.5C 347.25,324.459 344.916,325.125 342.5,325.5C 339.483,324.325 336.483,324.325 333.5,325.5C 331.5,325 329.5,324.5 327.5,324C 325.431,321.84 323.265,319.673 321,317.5C 319.699,318.893 318.199,319.393 316.5,319C 317.38,317.644 317.714,316.144 317.5,314.5C 315.833,314.5 314.167,314.5 312.5,314.5C 312.611,313.883 312.944,313.383 313.5,313C 315.473,312.505 317.473,312.338 319.5,312.5 Z"/></g>
<g><path style="opacity:1" fill="#f19b99" d="M 255.5,323.5 C 256.694,324.777 258.36,325.444 260.5,325.5C 262.167,325.333 263.833,325.167 265.5,325C 266.056,324.617 266.389,324.117 266.5,323.5C 267.167,323.5 267.833,323.5 268.5,323.5C 268.389,324.117 268.056,324.617 267.5,325C 268.793,325.49 270.127,325.657 271.5,325.5C 271.5,326.833 271.5,328.167 271.5,329.5C 274.265,329.202 276.765,328.202 279,326.5C 281.2,327.548 281.7,329.048 280.5,331C 277.625,332.302 274.625,333.135 271.5,333.5C 271.5,332.5 271.5,331.5 271.5,330.5C 268.653,329.988 265.986,328.988 263.5,327.5C 261.024,327.233 260.357,327.899 261.5,329.5C 254.458,326.993 247.458,326.993 240.5,329.5C 239.571,328.311 239.238,326.978 239.5,325.5C 241.253,322.582 243.753,320.582 247,319.5C 249.76,321.12 252.594,322.454 255.5,323.5 Z"/></g>
<g><path style="opacity:1" fill="#d09a95" d="M 255.5,323.5 C 259.167,323.5 262.833,323.5 266.5,323.5C 266.389,324.117 266.056,324.617 265.5,325C 263.833,325.167 262.167,325.333 260.5,325.5C 258.36,325.444 256.694,324.777 255.5,323.5 Z"/></g>
<g><path style="opacity:1" fill="#d39aa3" d="M 285.5,310.5 C 286.167,311.167 286.833,311.833 287.5,312.5C 282.822,314.334 279.156,317.5 276.5,322C 274.323,323.202 271.989,323.702 269.5,323.5C 270.167,322.833 270.833,322.167 271.5,321.5C 273.255,320.928 274.922,320.094 276.5,319C 279.416,315.913 282.416,313.079 285.5,310.5 Z"/></g>
<g><path style="opacity:1" fill="#fc989b" d="M 287.5,312.5 C 287.5,312.833 287.5,313.167 287.5,313.5C 288.348,315.093 289.681,316.26 291.5,317C 297.5,317.667 303.5,317.667 309.5,317C 310.942,316.623 311.942,315.79 312.5,314.5C 314.167,314.5 315.833,314.5 317.5,314.5C 317.714,316.144 317.38,317.644 316.5,319C 318.199,319.393 319.699,318.893 321,317.5C 323.265,319.673 325.431,321.84 327.5,324C 329.5,324.5 331.5,325 333.5,325.5C 336.483,324.325 339.483,324.325 342.5,325.5C 344.916,325.125 347.25,324.459 349.5,323.5C 350.167,323.833 350.833,324.167 351.5,324.5C 344.386,326.256 337.386,327.422 330.5,328C 329.743,329.512 328.743,330.846 327.5,332C 330.146,332.497 332.813,332.664 335.5,332.5C 335.5,331.167 335.5,329.833 335.5,328.5C 340.787,329.342 346.12,329.676 351.5,329.5C 351.201,331.604 351.534,333.604 352.5,335.5C 353.495,330.208 353.828,324.875 353.5,319.5C 354.594,318.418 355.927,317.752 357.5,317.5C 359.177,318.187 360.844,318.854 362.5,319.5C 363.338,319.842 363.672,320.508 363.5,321.5C 364.127,326.141 364.46,330.807 364.5,335.5C 364.167,335.5 363.833,335.5 363.5,335.5C 357.658,337.125 351.658,338.458 345.5,339.5C 320.95,342.773 296.283,344.106 271.5,343.5C 270.662,343.158 270.328,342.492 270.5,341.5C 270.106,336.683 267.773,333.349 263.5,331.5C 263.167,331.5 262.833,331.5 262.5,331.5C 262.167,330.833 261.833,330.167 261.5,329.5C 260.357,327.899 261.024,327.233 263.5,327.5C 265.986,328.988 268.653,329.988 271.5,330.5C 271.5,331.5 271.5,332.5 271.5,333.5C 274.625,333.135 277.625,332.302 280.5,331C 281.7,329.048 281.2,327.548 279,326.5C 276.765,328.202 274.265,329.202 271.5,329.5C 271.5,328.167 271.5,326.833 271.5,325.5C 270.127,325.657 268.793,325.49 267.5,325C 268.056,324.617 268.389,324.117 268.5,323.5C 268.833,323.5 269.167,323.5 269.5,323.5C 271.989,323.702 274.323,323.202 276.5,322C 279.156,317.5 282.822,314.334 287.5,312.5 Z"/></g>
<g><path style="opacity:1" fill="#b0828f" d="M 328.5,319.5 C 335.301,322.077 341.967,322.077 348.5,319.5C 349.5,319.5 350.5,319.5 351.5,319.5C 350.4,320.558 349.066,321.392 347.5,322C 342.5,322.667 337.5,322.667 332.5,322C 330.68,321.8 329.347,320.966 328.5,319.5 Z"/></g>
<g><path style="opacity:1" fill="#c1929b" d="M 362.5,319.5 C 360.844,318.854 359.177,318.187 357.5,317.5C 355.927,317.752 354.594,318.418 353.5,319.5C 352.833,319.5 352.167,319.5 351.5,319.5C 355.36,314.512 359.027,314.512 362.5,319.5 Z"/></g>
<g><path style="opacity:1" fill="#de9ea8" d="M 319.5,312.5 C 317.473,312.338 315.473,312.505 313.5,313C 312.944,313.383 312.611,313.883 312.5,314.5C 311.942,315.79 310.942,316.623 309.5,317C 303.5,317.667 297.5,317.667 291.5,317C 289.681,316.26 288.348,315.093 287.5,313.5C 290.914,315.37 294.581,316.37 298.5,316.5C 301.205,316.684 303.538,316.017 305.5,314.5C 310.11,314.222 313.777,312.222 316.5,308.5C 317.524,309.852 318.524,311.185 319.5,312.5 Z"/></g>
<g><path style="opacity:1" fill="#7a5c6f" d="M 287.5,313.5 C 287.5,313.167 287.5,312.833 287.5,312.5C 293.41,313.817 299.41,314.484 305.5,314.5C 303.538,316.017 301.205,316.684 298.5,316.5C 294.581,316.37 290.914,315.37 287.5,313.5 Z"/></g>
<g><path style="opacity:1" fill="#645d6f" d="M 271.5,321.5 C 270.833,322.167 270.167,322.833 269.5,323.5C 269.167,323.5 268.833,323.5 268.5,323.5C 267.833,323.5 267.167,323.5 266.5,323.5C 262.833,323.5 259.167,323.5 255.5,323.5C 252.594,322.454 249.76,321.12 247,319.5C 243.753,320.582 241.253,322.582 239.5,325.5C 237.567,327.937 235.4,330.271 233,332.5C 232.517,333.448 232.351,334.448 232.5,335.5C 231.742,333.019 231.742,330.352 232.5,327.5C 234.522,326.493 235.855,324.826 236.5,322.5C 238.225,321.985 239.892,321.318 241.5,320.5C 243.251,317.966 245.084,315.633 247,313.5C 250.698,313.606 252.864,315.439 253.5,319C 256.833,319.333 260.167,319.667 263.5,320C 260.833,320.333 258.167,320.667 255.5,321C 260.823,321.499 266.156,321.666 271.5,321.5 Z"/></g>
<g><path style="opacity:1" fill="#5c586c" d="M 348.5,319.5 C 341.967,322.077 335.301,322.077 328.5,319.5C 325.484,318.657 322.817,317.157 320.5,315C 319.748,314.329 319.414,313.496 319.5,312.5C 318.524,311.185 317.524,309.852 316.5,308.5C 313.777,312.222 310.11,314.222 305.5,314.5C 299.41,314.484 293.41,313.817 287.5,312.5C 286.833,311.833 286.167,311.167 285.5,310.5C 289.869,309.923 293.869,310.757 297.5,313C 303.195,314.656 307.862,313.323 311.5,309C 309.508,304.848 310.841,303.015 315.5,303.5C 315.662,305.824 316.828,307.491 319,308.5C 320.955,306.018 323.121,305.852 325.5,308C 324.833,309 324.167,310 323.5,311C 324.337,312.011 324.67,313.178 324.5,314.5C 327.106,315.136 329.606,315.136 332,314.5C 331.981,316.107 331.815,317.774 331.5,319.5C 337.167,319.5 342.833,319.5 348.5,319.5 Z"/></g>
<g><path style="opacity:1" fill="#d8e5ec" d="M 269.5,300.5 C 270.675,300.281 271.675,300.614 272.5,301.5C 270.833,303.5 269.167,305.5 267.5,307.5C 264.897,308.562 262.23,308.728 259.5,308C 263.08,305.723 266.414,303.223 269.5,300.5 Z"/></g>
<g><path style="opacity:1" fill="#e8eff4" d="M 328.5,298.5 C 334.308,299.737 339.642,302.071 344.5,305.5C 336.824,308.606 331.49,306.272 328.5,298.5 Z"/></g>
<g><path style="opacity:1" fill="#ebf3f5" d="M 297.5,293.5 C 301.371,293.185 305.038,293.518 308.5,294.5C 302.95,303.545 297.283,303.712 291.5,295C 293.436,294.187 295.436,293.687 297.5,293.5 Z"/></g>
<g><path style="opacity:1" fill="#aab2ba" d="M 297.5,293.5 C 301.351,292.191 305.351,292.191 309.5,293.5C 309.376,294.107 309.043,294.44 308.5,294.5C 305.038,293.518 301.371,293.185 297.5,293.5 Z"/></g>
<g><path style="opacity:1" fill="#bdc3c8" d="M 365.5,352.5 C 363.898,354.074 361.898,354.741 359.5,354.5C 361.102,352.926 363.102,352.259 365.5,352.5 Z"/></g>
<g><path style="opacity:1" fill="#4d6174" d="M 522.5,302.5 C 527.331,323.838 529.664,345.505 529.5,367.5C 529.171,373.537 529.504,379.537 530.5,385.5C 531.107,385.376 531.44,385.043 531.5,384.5C 532.391,383.89 533.391,383.557 534.5,383.5C 534.4,384.465 534.734,385.632 535.5,387C 534.115,388.597 533.449,390.43 533.5,392.5C 531.5,392.833 529.5,393.167 527.5,393.5C 526.487,384.781 525.153,376.114 523.5,367.5C 522.167,367.5 520.833,367.5 519.5,367.5C 519.313,372.621 519.313,377.621 519.5,382.5C 517.604,383.466 515.604,383.799 513.5,383.5C 512.97,358.796 510.637,334.129 506.5,309.5C 507.931,310.78 508.598,312.447 508.5,314.5C 509.5,314.5 510.5,314.5 511.5,314.5C 511.5,321.5 511.5,328.5 511.5,335.5C 512.833,335.5 514.167,335.5 515.5,335.5C 515.336,332.813 515.503,330.146 516,327.5C 516.333,329.167 516.667,330.833 517,332.5C 517.707,330.919 518.54,329.419 519.5,328C 517.314,327.396 517.148,326.23 519,324.5C 520.784,321.997 522.451,321.997 524,324.5C 524.167,323.833 524.333,323.167 524.5,322.5C 522.88,319.032 521.713,315.366 521,311.5C 520.333,312.833 519.667,312.833 519,311.5C 517.921,308.937 517.421,306.271 517.5,303.5C 519.292,303.634 520.958,303.301 522.5,302.5 Z"/></g>
<g><path style="opacity:1" fill="#e1edf0" d="M 248.5,346.5 C 249.833,346.5 251.167,346.5 252.5,346.5C 248.636,356.758 244.97,367.091 241.5,377.5C 240.5,377.5 239.5,377.5 238.5,377.5C 241.072,366.863 244.405,356.529 248.5,346.5 Z"/></g>
<g><path style="opacity:1" fill="#4e5f6f" d="M 534.5,383.5 C 535.5,381.167 537.167,379.5 539.5,378.5C 540.882,382.69 543.882,384.357 548.5,383.5C 548.5,384.5 548.5,385.5 548.5,386.5C 547.5,386.5 546.5,386.5 545.5,386.5C 545.351,387.552 545.517,388.552 546,389.5C 549.703,389.242 552.87,387.408 555.5,384C 554.72,382.927 554.887,381.76 556,380.5C 559.699,378.968 562.199,376.301 563.5,372.5C 564.183,372.863 564.85,373.196 565.5,373.5C 557.095,386.906 546.095,397.573 532.5,405.5C 531.504,405.586 530.671,405.252 530,404.5C 529.333,405.167 528.667,405.833 528,406.5C 527.501,410.821 527.334,415.154 527.5,419.5C 527.565,419.938 527.399,420.272 527,420.5C 526,418.833 525,417.167 524,415.5C 523.667,417.167 523.333,418.833 523,420.5C 521.016,418.575 519.183,417.242 517.5,416.5C 518.739,414.689 519.406,412.689 519.5,410.5C 518.332,406.837 518.332,403.17 519.5,399.5C 517.833,399.5 516.167,399.5 514.5,399.5C 514.784,397.585 514.451,395.919 513.5,394.5C 513.5,390.833 513.5,387.167 513.5,383.5C 515.604,383.799 517.604,383.466 519.5,382.5C 519.313,377.621 519.313,372.621 519.5,367.5C 520.833,367.5 522.167,367.5 523.5,367.5C 525.153,376.114 526.487,384.781 527.5,393.5C 529.5,393.167 531.5,392.833 533.5,392.5C 533.449,390.43 534.115,388.597 535.5,387C 534.734,385.632 534.4,384.465 534.5,383.5 Z"/></g>
<g><path style="opacity:1" fill="#969ca7" d="M 220.5,375.5 C 215.637,376.266 210.637,376.932 205.5,377.5C 205.611,376.883 205.944,376.383 206.5,376C 211.155,375.501 215.821,375.334 220.5,375.5 Z"/></g>
<g><path style="opacity:1" fill="#4e5e73" d="M 566.5,371.5 C 566.167,372.167 565.833,372.833 565.5,373.5C 564.85,373.196 564.183,372.863 563.5,372.5C 562.199,376.301 559.699,378.968 556,380.5C 554.887,381.76 554.72,382.927 555.5,384C 552.87,387.408 549.703,389.242 546,389.5C 545.517,388.552 545.351,387.552 545.5,386.5C 546.5,386.5 547.5,386.5 548.5,386.5C 548.5,385.5 548.5,384.5 548.5,383.5C 543.882,384.357 540.882,382.69 539.5,378.5C 544.5,372.664 549.333,366.664 554,360.5C 554.25,357.246 555.25,354.246 557,351.5C 558.189,339.44 556.522,327.774 552,316.5C 547.762,307.744 543.262,299.077 538.5,290.5C 538.435,290.062 538.601,289.728 539,289.5C 540.11,291.037 541.61,291.703 543.5,291.5C 543.5,292.5 543.5,293.5 543.5,294.5C 547.253,293.773 549.919,295.107 551.5,298.5C 552.086,298.291 552.586,297.957 553,297.5C 553.758,299.769 553.591,301.936 552.5,304C 553.167,304.667 553.833,305.333 554.5,306C 552.095,308.032 552.595,309.532 556,310.5C 556.684,311.784 556.517,312.951 555.5,314C 557.607,315.264 558.607,317.097 558.5,319.5C 559.5,319.5 560.5,319.5 561.5,319.5C 560.227,332.461 559.227,345.461 558.5,358.5C 555.203,358.329 554.869,358.995 557.5,360.5C 556.627,362.413 555.627,364.247 554.5,366C 555.905,367.269 557.571,367.769 559.5,367.5C 559.343,366.127 559.51,364.793 560,363.5C 561.145,365.926 562.478,368.259 564,370.5C 565.007,368.258 565.841,368.592 566.5,371.5 Z"/></g>
<g><path style="opacity:1" fill="#c0dbf4" d="M 165.5,324.5 C 167.736,328.854 169.236,333.521 170,338.5C 171.264,340.607 173.097,341.607 175.5,341.5C 180.159,343.83 184.826,346.163 189.5,348.5C 185.471,353.597 181.804,358.93 178.5,364.5C 175.872,370.68 173.705,377.013 172,383.5C 171.306,387.554 171.473,391.554 172.5,395.5C 159.877,375.756 156.544,354.423 162.5,331.5C 163.264,328.982 164.264,326.649 165.5,324.5 Z"/></g>
<g><path style="opacity:1" fill="#bbdcfc" d="M 178.5,364.5 C 173.558,367.307 170.725,371.64 170,377.5C 169.147,375.875 168.147,375.542 167,376.5C 164.215,375.712 163.049,373.879 163.5,371C 164.867,366.913 165.367,362.746 165,358.5C 164.29,357.027 163.124,356.36 161.5,356.5C 161.492,350.792 161.992,350.459 163,355.5C 164.294,354.146 164.46,352.812 163.5,351.5C 164.23,348.891 164.73,346.224 165,343.5C 165.419,342.328 166.085,341.328 167,340.5C 169.751,343.72 171.251,347.386 171.5,351.5C 175.354,351.828 179.021,351.162 182.5,349.5C 183.167,349.833 183.833,350.167 184.5,350.5C 180.849,354.467 178.849,359.134 178.5,364.5 Z"/></g>
<g><path style="opacity:1" fill="#7b93a9" d="M 529.5,367.5 C 530.167,373.167 530.833,378.833 531.5,384.5C 531.44,385.043 531.107,385.376 530.5,385.5C 529.504,379.537 529.171,373.537 529.5,367.5 Z"/></g>
<g><path style="opacity:1" fill="#a1a8b7" d="M 284.5,382.5 C 288.312,383.026 291.979,383.693 295.5,384.5C 292.15,384.665 288.817,384.498 285.5,384C 284.944,383.617 284.611,383.117 284.5,382.5 Z"/></g>
<g><path style="opacity:1" fill="#9c9ea8" d="M 203.5,378.5 C 202.735,381.096 202.401,383.763 202.5,386.5C 201.848,385.551 201.514,384.385 201.5,383C 201.307,380.992 201.974,379.492 203.5,378.5 Z"/></g>
<g><path style="opacity:1" fill="#fcfdfc" d="M 305.5,402.5 C 307.607,403.468 309.941,403.802 312.5,403.5C 313.734,409.812 313.734,416.146 312.5,422.5C 312.425,425.206 312.092,427.873 311.5,430.5C 303.5,427.833 295.5,425.167 287.5,422.5C 284.159,420.764 280.492,419.764 276.5,419.5C 259.161,415.941 241.495,414.607 223.5,415.5C 222.167,415.167 220.833,414.833 219.5,414.5C 220.355,407.412 221.689,400.412 223.5,393.5C 250.962,395.349 278.295,398.349 305.5,402.5 Z"/></g>
<g><path style="opacity:1" fill="#9ba1ab" d="M 206.5,395.5 C 206.5,397.167 206.5,398.833 206.5,400.5C 206.715,402.179 206.048,403.179 204.5,403.5C 204.963,400.67 205.629,398.003 206.5,395.5 Z"/></g>
<g><path style="opacity:1" fill="#b4bdc2" d="M 312.5,403.5 C 313.117,403.611 313.617,403.944 314,404.5C 314.167,407 314.333,409.5 314.5,412C 314.696,415.805 314.03,419.305 312.5,422.5C 313.734,416.146 313.734,409.812 312.5,403.5 Z"/></g>
<g><path style="opacity:1" fill="#50606e" d="M 143.5,364.5 C 145.921,366.4 147.921,368.734 149.5,371.5C 150.086,371.291 150.586,370.957 151,370.5C 150.836,375.155 150.836,379.821 151,384.5C 152.093,386.349 153.426,388.016 155,389.5C 155.5,388 156,386.5 156.5,385C 155.507,382.547 155.34,380.047 156,377.5C 157.814,374.13 159.647,373.963 161.5,377C 159.781,382.359 159.281,387.859 160,393.5C 161.713,392.122 163.047,390.455 164,388.5C 165.041,390.585 166.541,392.252 168.5,393.5C 167.652,395.409 167.318,397.409 167.5,399.5C 170.073,399.148 172.406,399.648 174.5,401C 172.699,401.317 172.366,401.984 173.5,403C 171.369,403.543 169.369,404.376 167.5,405.5C 165.801,408.574 166.467,410.908 169.5,412.5C 171.071,410.585 173.071,409.585 175.5,409.5C 176.011,416.219 175.344,422.719 173.5,429C 175.08,430.103 176.413,431.603 177.5,433.5C 177.34,435.153 176.674,436.486 175.5,437.5C 175.5,436.5 175.5,435.5 175.5,434.5C 171.471,433.883 168.137,435.05 165.5,438C 165.905,438.945 166.572,439.612 167.5,440C 166.773,442.124 166.106,444.291 165.5,446.5C 166.689,447.429 168.022,447.762 169.5,447.5C 169.511,449.547 169.844,451.547 170.5,453.5C 170.263,456.063 169.763,456.063 169,453.5C 166.67,456.465 166.17,459.632 167.5,463C 166.572,463.388 165.905,464.055 165.5,465C 166.609,467.047 167.276,469.213 167.5,471.5C 169.288,471.215 170.955,471.548 172.5,472.5C 172.234,475.345 171.234,477.678 169.5,479.5C 169.946,476.99 169.28,474.99 167.5,473.5C 163.384,467.935 160.384,461.935 158.5,455.5C 158.244,448.776 158.577,442.109 159.5,435.5C 161.254,428.899 163.588,422.566 166.5,416.5C 153.804,401.421 146.138,384.087 143.5,364.5 Z"/></g>
<g><path style="opacity:1" fill="#c9dff2" d="M 448.5,375.5 C 450.411,375.574 451.578,376.574 452,378.5C 452.342,391.261 452.509,403.928 452.5,416.5C 450.051,417.94 448.385,419.94 447.5,422.5C 448.945,412.765 449.945,402.932 450.5,393C 450.548,387.069 449.882,381.236 448.5,375.5 Z"/></g>
<g><path style="opacity:1" fill="#faf2e5" d="M 223.5,415.5 C 241.495,414.607 259.161,415.941 276.5,419.5C 258.711,417.79 241.045,416.456 223.5,415.5 Z"/></g>
<g><path style="opacity:1" fill="#d5c3aa" d="M 219.5,414.5 C 220.833,414.833 222.167,415.167 223.5,415.5C 241.045,416.456 258.711,417.79 276.5,419.5C 280.492,419.764 284.159,420.764 287.5,422.5C 268.96,420.395 250.294,418.729 231.5,417.5C 229.16,417.866 227.493,419.033 226.5,421C 227.992,423.322 229.659,425.489 231.5,427.5C 232.385,432.122 232.718,436.789 232.5,441.5C 231.833,441.5 231.167,441.5 230.5,441.5C 230.973,435.609 229.64,430.276 226.5,425.5C 224.927,421.354 222.593,417.687 219.5,414.5 Z"/></g>
<g><path style="opacity:1" fill="#b9d5f0" d="M 183.5,464.5 C 186.406,464.916 189.239,465.582 192,466.5C 196.742,465.814 199.409,463.147 200,458.5C 200.333,459.833 200.667,461.167 201,462.5C 204.754,459.462 207.587,455.629 209.5,451C 208.971,449.441 208.304,447.941 207.5,446.5C 207.513,441.521 207.846,436.521 208.5,431.5C 206.5,431.5 204.5,431.5 202.5,431.5C 201.833,428.833 201.167,426.167 200.5,423.5C 197.193,422.949 193.86,422.616 190.5,422.5C 189.836,424.867 188.503,426.867 186.5,428.5C 186.709,429.086 187.043,429.586 187.5,430C 185.75,431.319 183.75,431.819 181.5,431.5C 181.523,433.6 180.856,435.433 179.5,437C 179.944,438.762 180.444,438.595 181,436.5C 179.977,439.73 178.81,443.063 177.5,446.5C 178.415,447.328 179.081,448.328 179.5,449.5C 178.768,453.372 178.768,457.039 179.5,460.5C 174.708,453.569 173.375,445.902 175.5,437.5C 176.674,436.486 177.34,435.153 177.5,433.5C 179.663,429.38 182.663,425.88 186.5,423C 190.741,421.543 195.074,421.209 199.5,422C 210.143,427.114 214.643,435.614 213,447.5C 212.296,456.774 207.796,463.274 199.5,467C 193.475,469.585 188.142,468.751 183.5,464.5 Z"/></g>
<g><path style="opacity:1" fill="#dfc098" d="M 287.5,422.5 C 293.532,426.509 300.198,429.509 307.5,431.5C 308.659,435.122 308.825,438.789 308,442.5C 306.631,449.629 305.131,456.629 303.5,463.5C 302.5,463.5 301.5,463.5 300.5,463.5C 299.833,470.508 299,477.508 298,484.5C 296.519,485.471 295.685,486.804 295.5,488.5C 283.66,488.833 279.327,494.666 282.5,506C 284.043,507.713 285.709,509.213 287.5,510.5C 281.68,508.492 278.18,510.492 277,516.5C 275.556,514.845 273.722,514.178 271.5,514.5C 271.5,515.5 271.5,516.5 271.5,517.5C 266.167,517.5 260.833,517.5 255.5,517.5C 255.5,518.5 255.5,519.5 255.5,520.5C 263.601,520.827 271.601,520.161 279.5,518.5C 279.5,519.833 279.5,521.167 279.5,522.5C 275.035,523.07 270.535,523.404 266,523.5C 257.193,522.378 248.36,521.711 239.5,521.5C 239.5,520.5 239.5,519.5 239.5,518.5C 234.253,517.022 228.92,515.855 223.5,515C 221.456,514.502 220.122,513.335 219.5,511.5C 220.721,512.028 221.887,512.695 223,513.5C 233.235,511.814 237.235,505.814 235,495.5C 228.503,488.546 221.67,487.88 214.5,493.5C 214.5,488.833 214.5,484.167 214.5,479.5C 217.755,479.986 220.422,478.986 222.5,476.5C 223.167,477.5 223.833,478.5 224.5,479.5C 225.741,474.575 226.407,469.575 226.5,464.5C 230.146,465.283 233.812,465.45 237.5,465C 239.293,462.205 241.46,459.705 244,457.5C 245.763,447.998 241.929,442.665 232.5,441.5C 232.718,436.789 232.385,432.122 231.5,427.5C 229.659,425.489 227.992,423.322 226.5,421C 227.493,419.033 229.16,417.866 231.5,417.5C 250.294,418.729 268.96,420.395 287.5,422.5 Z"/></g>
<g><path style="opacity:1" fill="#4c5f6d" d="M 504.5,425.5 C 504.5,425.833 504.5,426.167 504.5,426.5C 503.448,426.771 502.115,426.938 500.5,427C 501.579,427.956 502.745,428.789 504,429.5C 504.885,436.611 505.385,443.944 505.5,451.5C 505.463,455.925 504.796,460.091 503.5,464C 504.602,466.401 504.769,468.901 504,471.5C 502.744,473.754 501.577,476.088 500.5,478.5C 501.689,479.429 503.022,479.762 504.5,479.5C 504.034,481.201 504.034,482.701 504.5,484C 502.783,485.559 500.783,486.392 498.5,486.5C 499.12,482.698 498.286,479.365 496,476.5C 495.501,472.179 495.334,467.846 495.5,463.5C 496.833,463.5 498.167,463.5 499.5,463.5C 499.5,458.167 499.5,452.833 499.5,447.5C 498.167,447.5 496.833,447.5 495.5,447.5C 495.798,444.735 496.798,442.235 498.5,440C 497.555,438.089 497.555,436.089 498.5,434C 498.561,432.289 497.894,430.956 496.5,430C 497.88,428.075 499.38,426.241 501,424.5C 502.011,425.337 503.178,425.67 504.5,425.5 Z"/></g>
<g><path style="opacity:1" fill="#bcdcfd" d="M 183.5,464.5 C 181.227,464.043 179.894,462.71 179.5,460.5C 178.768,457.039 178.768,453.372 179.5,449.5C 179.081,448.328 178.415,447.328 177.5,446.5C 178.81,443.063 179.977,439.73 181,436.5C 180.444,438.595 179.944,438.762 179.5,437C 180.856,435.433 181.523,433.6 181.5,431.5C 183.75,431.819 185.75,431.319 187.5,430C 187.043,429.586 186.709,429.086 186.5,428.5C 188.503,426.867 189.836,424.867 190.5,422.5C 193.86,422.616 197.193,422.949 200.5,423.5C 201.167,426.167 201.833,428.833 202.5,431.5C 204.5,431.5 206.5,431.5 208.5,431.5C 207.846,436.521 207.513,441.521 207.5,446.5C 208.304,447.941 208.971,449.441 209.5,451C 207.587,455.629 204.754,459.462 201,462.5C 200.667,461.167 200.333,459.833 200,458.5C 199.409,463.147 196.742,465.814 192,466.5C 189.239,465.582 186.406,464.916 183.5,464.5 Z"/></g>
<g><path style="opacity:1" fill="#56646d" d="M 532.5,405.5 C 532.567,414.235 533.4,422.902 535,431.5C 539.821,452.754 544.321,474.087 548.5,495.5C 546.882,492.444 545.382,489.11 544,485.5C 543.505,483.527 543.338,481.527 543.5,479.5C 542.167,479.5 540.833,479.5 539.5,479.5C 539.422,475.046 540.089,470.713 541.5,466.5C 541.192,465.692 540.692,465.025 540,464.5C 539.667,466.833 539.333,469.167 539,471.5C 537.576,461.868 536.243,452.201 535,442.5C 533.106,439.26 531.939,435.76 531.5,432C 532.167,431.667 532.833,431.333 533.5,431C 532.947,429.122 531.947,427.622 530.5,426.5C 530.113,423.794 529.113,421.461 527.5,419.5C 527.334,415.154 527.501,410.821 528,406.5C 528.667,405.833 529.333,405.167 530,404.5C 530.671,405.252 531.504,405.586 532.5,405.5 Z"/></g>
<g><path style="opacity:1" fill="#ccd0d5" d="M 159.5,435.5 C 158.577,442.109 158.244,448.776 158.5,455.5C 157.347,449.347 157.18,443.014 158,436.5C 158.383,435.944 158.883,435.611 159.5,435.5 Z"/></g>
<g><path style="opacity:1" fill="#4c6076" d="M 504.5,425.5 C 503.178,425.67 502.011,425.337 501,424.5C 499.38,426.241 497.88,428.075 496.5,430C 497.894,430.956 498.561,432.289 498.5,434C 497.555,436.089 497.555,438.089 498.5,440C 496.798,442.235 495.798,444.735 495.5,447.5C 496.833,447.5 498.167,447.5 499.5,447.5C 499.5,452.833 499.5,458.167 499.5,463.5C 498.167,463.5 496.833,463.5 495.5,463.5C 495.334,467.846 495.501,472.179 496,476.5C 498.286,479.365 499.12,482.698 498.5,486.5C 500.783,486.392 502.783,485.559 504.5,484C 504.034,482.701 504.034,481.201 504.5,479.5C 503.022,479.762 501.689,479.429 500.5,478.5C 501.577,476.088 502.744,473.754 504,471.5C 504.769,468.901 504.602,466.401 503.5,464C 504.796,460.091 505.463,455.925 505.5,451.5C 505.385,443.944 504.885,436.611 504,429.5C 502.745,428.789 501.579,427.956 500.5,427C 502.115,426.938 503.448,426.771 504.5,426.5C 505.79,427.058 506.623,428.058 507,429.5C 508.475,444.472 508.809,459.472 508,474.5C 506.423,487.856 502.256,500.189 495.5,511.5C 497.674,506.521 499.008,501.187 499.5,495.5C 495.167,495.5 490.833,495.5 486.5,495.5C 486.827,500.456 484.827,503.123 480.5,503.5C 486.765,492.462 490.265,480.462 491,467.5C 491.581,454.448 491.247,441.448 490,428.5C 493.786,421.91 498.619,420.91 504.5,425.5 Z"/></g>
<g><path style="opacity:1" fill="#5c6162" d="M 226.5,425.5 C 229.64,430.276 230.973,435.609 230.5,441.5C 230.732,447.62 230.065,453.62 228.5,459.5C 228.107,461.284 227.441,462.95 226.5,464.5C 225.728,465.694 224.728,466.694 223.5,467.5C 223.5,466.167 223.5,464.833 223.5,463.5C 225.463,459.004 227.13,454.171 228.5,449C 227.894,443.022 227.227,437.189 226.5,431.5C 226.5,429.5 226.5,427.5 226.5,425.5 Z"/></g>
<g><path style="opacity:1" fill="#bd9c76" d="M 232.5,441.5 C 241.929,442.665 245.763,447.998 244,457.5C 241.46,459.705 239.293,462.205 237.5,465C 233.812,465.45 230.146,465.283 226.5,464.5C 227.441,462.95 228.107,461.284 228.5,459.5C 230.417,458.884 231.584,457.55 232,455.5C 232.499,450.845 232.666,446.179 232.5,441.5 Z"/></g>
<g><path style="opacity:1" fill="#a59982" d="M 230.5,441.5 C 231.167,441.5 231.833,441.5 232.5,441.5C 232.666,446.179 232.499,450.845 232,455.5C 231.584,457.55 230.417,458.884 228.5,459.5C 230.065,453.62 230.732,447.62 230.5,441.5 Z"/></g>
<g><path style="opacity:1" fill="#bc9c73" d="M 277.5,452.5 C 289.18,451.581 294.346,456.914 293,468.5C 287.864,473.656 281.697,475.823 274.5,475C 269.198,468.827 268.198,461.994 271.5,454.5C 273.898,454.741 275.898,454.074 277.5,452.5 Z"/></g>
<g><path style="opacity:1" fill="#4c6075" d="M 513.5,394.5 C 514.451,395.919 514.784,397.585 514.5,399.5C 516.167,399.5 517.833,399.5 519.5,399.5C 518.332,403.17 518.332,406.837 519.5,410.5C 519.406,412.689 518.739,414.689 517.5,416.5C 519.183,417.242 521.016,418.575 523,420.5C 523.333,418.833 523.667,417.167 524,415.5C 525,417.167 526,418.833 527,420.5C 527.399,420.272 527.565,419.938 527.5,419.5C 529.113,421.461 530.113,423.794 530.5,426.5C 529.781,430.165 528.948,433.832 528,437.5C 527.667,435.833 527.333,434.167 527,432.5C 525.957,436.226 525.457,435.893 525.5,431.5C 523.833,431.5 522.167,431.5 520.5,431.5C 520.596,434.956 521.596,438.123 523.5,441C 523.167,441.333 522.833,441.667 522.5,442C 524.715,445.366 526.382,449.033 527.5,453C 526.643,453.689 525.977,454.522 525.5,455.5C 527.024,459.283 528.024,463.283 528.5,467.5C 529.842,468.902 530.676,468.569 531,466.5C 534.873,469.947 536.706,474.281 536.5,479.5C 535.5,479.5 534.5,479.5 533.5,479.5C 532.757,487.894 534.09,495.894 537.5,503.5C 539.353,504.76 541.186,504.76 543,503.5C 543.333,500.5 543.667,497.5 544,494.5C 545.767,497.33 545.933,500.33 544.5,503.5C 545.167,506.833 545.833,510.167 546.5,513.5C 544.254,518.54 542.92,523.873 542.5,529.5C 536.062,531.876 536.062,533.876 542.5,535.5C 543.452,533.955 543.785,532.288 543.5,530.5C 546.321,530.316 547.988,531.649 548.5,534.5C 546.816,536.351 544.983,538.018 543,539.5C 541.324,538.939 539.991,537.939 539,536.5C 538.487,537.527 537.987,538.527 537.5,539.5C 537.167,539.5 536.833,539.5 536.5,539.5C 534.717,534.02 534.051,528.353 534.5,522.5C 533.702,511.415 532.202,500.415 530,489.5C 522.343,458.228 516.843,426.561 513.5,394.5 Z"/></g>
<g><path style="opacity:1" fill="#4e606e" d="M 530.5,426.5 C 531.947,427.622 532.947,429.122 533.5,431C 532.833,431.333 532.167,431.667 531.5,432C 531.939,435.76 533.106,439.26 535,442.5C 536.243,452.201 537.576,461.868 539,471.5C 539.333,469.167 539.667,466.833 540,464.5C 540.692,465.025 541.192,465.692 541.5,466.5C 540.089,470.713 539.422,475.046 539.5,479.5C 540.833,479.5 542.167,479.5 543.5,479.5C 543.338,481.527 543.505,483.527 544,485.5C 545.382,489.11 546.882,492.444 548.5,495.5C 551.619,508.643 552.786,521.976 552,535.5C 548.624,542.967 543.79,544.3 537.5,539.5C 537.987,538.527 538.487,537.527 539,536.5C 539.991,537.939 541.324,538.939 543,539.5C 544.983,538.018 546.816,536.351 548.5,534.5C 547.988,531.649 546.321,530.316 543.5,530.5C 543.785,532.288 543.452,533.955 542.5,535.5C 536.062,533.876 536.062,531.876 542.5,529.5C 542.92,523.873 544.254,518.54 546.5,513.5C 545.833,510.167 545.167,506.833 544.5,503.5C 545.933,500.33 545.767,497.33 544,494.5C 543.667,497.5 543.333,500.5 543,503.5C 541.186,504.76 539.353,504.76 537.5,503.5C 534.09,495.894 532.757,487.894 533.5,479.5C 534.5,479.5 535.5,479.5 536.5,479.5C 536.706,474.281 534.873,469.947 531,466.5C 530.676,468.569 529.842,468.902 528.5,467.5C 528.024,463.283 527.024,459.283 525.5,455.5C 525.977,454.522 526.643,453.689 527.5,453C 526.382,449.033 524.715,445.366 522.5,442C 522.833,441.667 523.167,441.333 523.5,441C 521.596,438.123 520.596,434.956 520.5,431.5C 522.167,431.5 523.833,431.5 525.5,431.5C 525.457,435.893 525.957,436.226 527,432.5C 527.333,434.167 527.667,435.833 528,437.5C 528.948,433.832 529.781,430.165 530.5,426.5 Z"/></g>
<g><path style="opacity:1" fill="#576067" d="M 279.5,524.5 C 281.075,521.418 283.242,518.751 286,516.5C 286.608,514.846 287.108,513.179 287.5,511.5C 291.586,504.27 294.919,496.603 297.5,488.5C 304.313,469.791 308.979,450.458 311.5,430.5C 312.092,427.873 312.425,425.206 312.5,422.5C 314.03,419.305 314.696,415.805 314.5,412C 314.333,409.5 314.167,407 314,404.5C 313.617,403.944 313.117,403.611 312.5,403.5C 309.941,403.802 307.607,403.468 305.5,402.5C 308.777,402.784 311.943,402.451 315,401.5C 316.591,403.178 318.091,404.178 319.5,404.5C 318.46,406.523 317.46,408.523 316.5,410.5C 315.595,415.19 315.595,420.023 316.5,425C 313.825,432.217 312.492,439.717 312.5,447.5C 311.5,447.5 310.5,447.5 309.5,447.5C 309.281,455.847 308.781,464.18 308,472.5C 306.951,476.265 305.618,479.932 304,483.5C 303.501,487.486 303.334,491.486 303.5,495.5C 302.5,495.5 301.5,495.5 300.5,495.5C 300.657,494.127 300.49,492.793 300,491.5C 297.988,493.682 296.988,496.349 297,499.5C 292.283,504.508 290.283,510.508 291,517.5C 290.586,517.043 290.086,516.709 289.5,516.5C 288.289,517.274 288.289,518.107 289.5,519C 287.392,519.36 285.392,520.027 283.5,521C 282.897,523.071 281.564,524.238 279.5,524.5 Z"/></g>
<g><path style="opacity:1" fill="#4f606e" d="M 452.5,416.5 C 455.059,416.198 457.393,416.532 459.5,417.5C 460.966,420.502 461.632,423.502 461.5,426.5C 460.499,429.839 459.499,433.173 458.5,436.5C 457.702,434.922 457.202,433.256 457,431.5C 456.419,435.19 456.585,438.856 457.5,442.5C 454.372,455.494 451.538,455.494 449,442.5C 448.085,441.672 447.419,440.672 447,439.5C 446.667,440.5 446.333,441.5 446,442.5C 446.639,448.361 447.805,454.194 449.5,460C 449.635,463.042 448.969,465.875 447.5,468.5C 446.132,469.594 444.965,469.26 444,467.5C 443.667,464.833 443.333,462.167 443,459.5C 441.413,458.273 440.079,458.606 439,460.5C 438.5,462 438,463.5 437.5,465C 438.308,468.135 439.308,471.302 440.5,474.5C 439.617,475.548 438.95,476.715 438.5,478C 439.114,480.854 439.781,483.687 440.5,486.5C 439.689,488.78 439.689,491.28 440.5,494C 437.795,498.447 438.129,502.781 441.5,507C 440.833,508 440.167,509 439.5,510C 441.107,511.049 441.773,512.549 441.5,514.5C 439.5,515.167 437.5,515.833 435.5,516.5C 435.357,518.262 435.691,519.929 436.5,521.5C 438.382,521.358 440.382,521.858 442.5,523C 441.346,523.914 441.513,524.747 443,525.5C 446.204,514.07 447.704,514.07 447.5,525.5C 451.5,526.167 451.5,526.833 447.5,527.5C 447.5,528.5 447.5,529.5 447.5,530.5C 449.199,530.34 450.866,530.506 452.5,531C 453.756,531.417 454.423,532.25 454.5,533.5C 454.167,533.5 453.833,533.5 453.5,533.5C 438.154,530.987 429.321,521.987 427,506.5C 426.418,499.148 426.585,491.815 427.5,484.5C 429.241,482.605 430.241,480.272 430.5,477.5C 435.026,464.74 439.859,452.073 445,439.5C 445.998,433.845 446.832,428.178 447.5,422.5C 448.385,419.94 450.051,417.94 452.5,416.5 Z"/></g>
<g><path style="opacity:1" fill="#d3bfa8" d="M 287.5,422.5 C 295.5,425.167 303.5,427.833 311.5,430.5C 308.979,450.458 304.313,469.791 297.5,488.5C 296.833,488.5 296.167,488.5 295.5,488.5C 295.685,486.804 296.519,485.471 298,484.5C 299,477.508 299.833,470.508 300.5,463.5C 301.5,463.5 302.5,463.5 303.5,463.5C 305.131,456.629 306.631,449.629 308,442.5C 308.825,438.789 308.659,435.122 307.5,431.5C 300.198,429.509 293.532,426.509 287.5,422.5 Z"/></g>
<g><path style="opacity:1" fill="#b1b6c0" d="M 167.5,473.5 C 169.28,474.99 169.946,476.99 169.5,479.5C 169.768,481.099 169.434,482.432 168.5,483.5C 168.658,480.098 168.324,476.764 167.5,473.5 Z"/></g>
<g><path style="opacity:1" fill="#a1a9b0" d="M 430.5,477.5 C 430.241,480.272 429.241,482.605 427.5,484.5C 427.759,481.728 428.759,479.395 430.5,477.5 Z"/></g>
<g><path style="opacity:1" fill="#c9b7a2" d="M 226.5,464.5 C 226.407,469.575 225.741,474.575 224.5,479.5C 223.833,478.5 223.167,477.5 222.5,476.5C 220.422,478.986 217.755,479.986 214.5,479.5C 214.5,484.167 214.5,488.833 214.5,493.5C 214.303,499.545 214.637,505.545 215.5,511.5C 214.778,511.082 214.278,510.416 214,509.5C 213.826,504.649 213.326,499.982 212.5,495.5C 212.334,490.156 212.501,484.823 213,479.5C 217.829,476.515 221.329,472.515 223.5,467.5C 224.728,466.694 225.728,465.694 226.5,464.5 Z"/></g>
<g><path style="opacity:1" fill="#bb9b73" d="M 219.5,511.5 C 218.167,511.5 216.833,511.5 215.5,511.5C 214.637,505.545 214.303,499.545 214.5,493.5C 221.67,487.88 228.503,488.546 235,495.5C 237.235,505.814 233.235,511.814 223,513.5C 221.887,512.695 220.721,512.028 219.5,511.5 Z"/></g>
<g><path style="opacity:1" fill="#ba9a76" d="M 295.5,488.5 C 296.167,488.5 296.833,488.5 297.5,488.5C 294.919,496.603 291.586,504.27 287.5,511.5C 287.5,511.167 287.5,510.833 287.5,510.5C 285.709,509.213 284.043,507.713 282.5,506C 279.327,494.666 283.66,488.833 295.5,488.5 Z"/></g>
<g><path style="opacity:1" fill="#bc9c72" d="M 250.5,487.5 C 261.82,487.148 266.82,492.482 265.5,503.5C 262.323,510.294 256.989,512.794 249.5,511C 245.36,508.38 243.027,504.546 242.5,499.5C 243.91,495.683 245.576,492.017 247.5,488.5C 248.791,488.737 249.791,488.404 250.5,487.5 Z"/></g>
<g><path style="opacity:1" fill="#4c6074" d="M 459.5,417.5 C 461.708,418.023 463.208,419.356 464,421.5C 464.596,426.88 464.262,432.213 463,437.5C 455.732,454.545 449.065,471.878 443,489.5C 442.333,494.167 442.333,498.833 443,503.5C 444.687,512.178 450.021,516.511 459,516.5C 466.78,515.693 473.28,512.36 478.5,506.5C 479.133,506.88 479.8,507.213 480.5,507.5C 476.963,514.037 471.629,518.37 464.5,520.5C 463.509,524.445 463.176,528.445 463.5,532.5C 464.5,532.5 465.5,532.5 466.5,532.5C 465.791,533.404 464.791,533.737 463.5,533.5C 460.5,533.5 457.5,533.5 454.5,533.5C 454.423,532.25 453.756,531.417 452.5,531C 450.866,530.506 449.199,530.34 447.5,530.5C 447.5,529.5 447.5,528.5 447.5,527.5C 451.5,526.833 451.5,526.167 447.5,525.5C 447.704,514.07 446.204,514.07 443,525.5C 441.513,524.747 441.346,523.914 442.5,523C 440.382,521.858 438.382,521.358 436.5,521.5C 435.691,519.929 435.357,518.262 435.5,516.5C 437.5,515.833 439.5,515.167 441.5,514.5C 441.773,512.549 441.107,511.049 439.5,510C 440.167,509 440.833,508 441.5,507C 438.129,502.781 437.795,498.447 440.5,494C 439.689,491.28 439.689,488.78 440.5,486.5C 439.781,483.687 439.114,480.854 438.5,478C 438.95,476.715 439.617,475.548 440.5,474.5C 439.308,471.302 438.308,468.135 437.5,465C 438,463.5 438.5,462 439,460.5C 440.079,458.606 441.413,458.273 443,459.5C 443.333,462.167 443.667,464.833 444,467.5C 444.965,469.26 446.132,469.594 447.5,468.5C 448.969,465.875 449.635,463.042 449.5,460C 447.805,454.194 446.639,448.361 446,442.5C 446.333,441.5 446.667,440.5 447,439.5C 447.419,440.672 448.085,441.672 449,442.5C 451.538,455.494 454.372,455.494 457.5,442.5C 456.585,438.856 456.419,435.19 457,431.5C 457.202,433.256 457.702,434.922 458.5,436.5C 459.499,433.173 460.499,429.839 461.5,426.5C 461.632,423.502 460.966,420.502 459.5,417.5 Z"/></g>
<g><path style="opacity:1" fill="#dae2e7" d="M 195.5,487.5 C 192.169,486.026 189.003,486.359 186,488.5C 185.5,498.828 185.334,509.161 185.5,519.5C 184.505,508.346 184.172,497.012 184.5,485.5C 188.649,484.92 192.316,485.586 195.5,487.5 Z"/></g>
<g><path style="opacity:1" fill="#9ea6b1" d="M 168.5,487.5 C 168.251,499.531 168.584,511.531 169.5,523.5C 168.778,523.082 168.278,522.416 168,521.5C 167.174,509.992 167.341,498.659 168.5,487.5 Z"/></g>
<g><path style="opacity:1" fill="#a4a8b2" d="M 196.5,503.5 C 198.223,505.78 198.889,508.447 198.5,511.5C 198.5,512.167 198.5,512.833 198.5,513.5C 197.419,510.373 196.753,507.04 196.5,503.5 Z"/></g>
<g><path style="opacity:1" fill="#606364" d="M 212.5,495.5 C 213.326,499.982 213.826,504.649 214,509.5C 214.278,510.416 214.778,511.082 215.5,511.5C 217.071,514.231 219.405,516.065 222.5,517C 227.998,519.223 233.665,520.723 239.5,521.5C 251.157,524.647 263.157,525.98 275.5,525.5C 269.013,526.654 262.346,526.821 255.5,526C 243.657,524.898 231.991,522.898 220.5,520C 218.04,518.542 215.873,516.709 214,514.5C 212.63,508.258 212.13,501.925 212.5,495.5 Z"/></g>
<g><path style="opacity:1" fill="#d9bfa3" d="M 287.5,510.5 C 287.5,510.833 287.5,511.167 287.5,511.5C 287.108,513.179 286.608,514.846 286,516.5C 283.242,518.751 281.075,521.418 279.5,524.5C 278.167,524.833 276.833,525.167 275.5,525.5C 263.157,525.98 251.157,524.647 239.5,521.5C 248.36,521.711 257.193,522.378 266,523.5C 270.535,523.404 275.035,523.07 279.5,522.5C 279.5,521.167 279.5,519.833 279.5,518.5C 271.601,520.161 263.601,520.827 255.5,520.5C 255.5,519.5 255.5,518.5 255.5,517.5C 260.833,517.5 266.167,517.5 271.5,517.5C 271.5,516.5 271.5,515.5 271.5,514.5C 273.722,514.178 275.556,514.845 277,516.5C 278.18,510.492 281.68,508.492 287.5,510.5 Z"/></g>
<g><path style="opacity:1" fill="#d0baa3" d="M 215.5,511.5 C 216.833,511.5 218.167,511.5 219.5,511.5C 220.122,513.335 221.456,514.502 223.5,515C 228.92,515.855 234.253,517.022 239.5,518.5C 239.5,519.5 239.5,520.5 239.5,521.5C 233.665,520.723 227.998,519.223 222.5,517C 219.405,516.065 217.071,514.231 215.5,511.5 Z"/></g>
<g><path style="opacity:1" fill="#4d5f6f" d="M 495.5,511.5 C 488.981,522.664 479.314,529.664 466.5,532.5C 465.5,532.5 464.5,532.5 463.5,532.5C 463.176,528.445 463.509,524.445 464.5,520.5C 471.629,518.37 476.963,514.037 480.5,507.5C 479.8,507.213 479.133,506.88 478.5,506.5C 479.167,505.5 479.833,504.5 480.5,503.5C 484.827,503.123 486.827,500.456 486.5,495.5C 490.833,495.5 495.167,495.5 499.5,495.5C 499.008,501.187 497.674,506.521 495.5,511.5 Z"/></g>
<g><path style="opacity:1" fill="#5c666f" d="M 198.5,511.5 C 200.77,515.977 203.77,520.143 207.5,524C 210.702,524.547 213.702,525.547 216.5,527C 216.167,528 215.833,529 215.5,530C 216.38,532.568 217.88,533.068 220,531.5C 231.366,536.034 243.2,538.368 255.5,538.5C 255.5,539.5 255.5,540.5 255.5,541.5C 241.803,540.436 228.47,537.602 215.5,533C 206.441,529.339 200.775,522.839 198.5,513.5C 198.5,512.833 198.5,512.167 198.5,511.5 Z"/></g>
<g><path style="opacity:1" fill="#c4dcf1" d="M 534.5,522.5 C 534.051,528.353 534.717,534.02 536.5,539.5C 525.468,540.285 514.468,541.451 503.5,543C 489.093,543.87 474.759,543.204 460.5,541C 457.94,538.61 455.606,536.11 453.5,533.5C 453.833,533.5 454.167,533.5 454.5,533.5C 457.5,533.5 460.5,533.5 463.5,533.5C 461.958,534.163 460.291,534.83 458.5,535.5C 458.977,536.478 459.643,537.311 460.5,538C 469.502,540.807 478.502,540.973 487.5,538.5C 502.703,538.781 518.036,538.781 533.5,538.5C 533.833,538.167 534.167,537.833 534.5,537.5C 533.104,536.148 532.437,534.481 532.5,532.5C 532.901,528.976 533.567,525.642 534.5,522.5 Z"/></g>
</svg>
